<svg xmlns="http://www.w3.org/2000/svg" version="1.1" xmlns:xlink="http://www.w3.org/1999/xlink" width="256" height="256"><svg id="SvgjsSvg1097" data-name="Ebene 1" xmlns="http://www.w3.org/2000/svg" viewBox="0 0 256 256">
  <defs>
    <style>
      .cls-1 {
        fill: #2c6fa0;
      }

      .cls-2 {
        fill: #fff;
      }

      .cls-3 {
        fill: #bbf452;
      }
    </style>
  </defs>
  <rect class="cls-1" width="256" height="256"></rect>
  <g>
    <path class="cls-2" d="M84.66,46.5c0-3.25,2.5-6,6-6h29.25c3.25,0,6,2.75,6,6v65.75l55.5-69.25c1-1.25,3.25-2.5,4.75-2.5h31.5c4.75,0,7.25,5.5,4.5,9.25l-58.5,73.25,63.75,83c2.75,3.75,0,9.25-4.75,9.25h-34.5c-1.75,0-4-1-4.5-1.75l-57.75-78.5v74.5c0,3.25-2.75,6-6,6h-29.25c-3.5,0-6-2.75-6-6V46.5Z"></path>
    <path class="cls-3" d="M46.06,90.62l.3-13.5-11.1,7.65c-1.2.9-3.15.45-3.9-.75l-3.3-5.25c-.9-1.35-.75-3.15.75-4.05l12.9-7.65-12.9-7.8c-1.35-.9-1.65-2.7-.9-4.05,1.5-2.25,2.4-3.6,3.6-5.25.9-1.05,2.55-1.5,3.75-.6l11.1,7.65-.3-13.65c0-1.5,1.35-2.85,2.85-2.85h6.15c1.5,0,2.85,1.35,2.85,2.85l-.3,13.65,11.25-7.65c1.2-.75,3.15-.45,3.9.75l3.3,5.1c.9,1.35.75,3.3-.75,4.2l-12.9,7.65,12.9,7.8c1.5.9,1.65,2.7.9,3.9l-3.75,5.25c-.75,1.2-2.55,1.5-3.75.75l-11.1-7.5.3,13.35c0,1.5-1.35,2.85-2.85,2.85h-6.15c-1.5,0-2.85-1.35-2.85-2.85Z"></path>
  </g>
</svg><style>@media (prefers-color-scheme: light) { :root { filter: none; } }
@media (prefers-color-scheme: dark) { :root { filter: none; } }
</style></svg>