<?xml version="1.0" encoding="UTF-8"?>
<!--Generator: Apple Native CoreSVG 326-->
<!DOCTYPE svg
PUBLIC "-//W3C//DTD SVG 1.1//EN"
       "http://www.w3.org/Graphics/SVG/1.1/DTD/svg11.dtd">
<svg version="1.1" xmlns="http://www.w3.org/2000/svg" xmlns:xlink="http://www.w3.org/1999/xlink" viewBox="0 0 31.9844 16.0469">
 <g>
  <rect height="16.0469" opacity="0" width="31.9844" x="0" y="0"/>
  <path d="M1.17188 16.0469L30.4219 16.0469C31.0781 16.0469 31.6094 15.5156 31.6094 14.8438C31.6094 14.1875 31.0781 13.6719 30.4219 13.6719L1.17188 13.6719C0.515625 13.6719 0 14.1875 0 14.8438C0 15.5156 0.515625 16.0469 1.17188 16.0469Z" fill="black" fill-opacity="0.85"/>
  <path d="M1.17188 9.21875L30.4219 9.21875C31.0781 9.21875 31.6094 8.70312 31.6094 8.04688C31.6094 7.375 31.0781 6.84375 30.4219 6.84375L1.17188 6.84375C0.515625 6.84375 0 7.375 0 8.04688C0 8.70312 0.515625 9.21875 1.17188 9.21875Z" fill="black" fill-opacity="0.85"/>
  <path d="M1.17188 2.40625L30.4219 2.40625C31.0781 2.40625 31.6094 1.89062 31.6094 1.23438C31.6094 0.578125 31.0781 0.046875 30.4219 0.046875L1.17188 0.046875C0.515625 0.046875 0 0.578125 0 1.23438C0 1.89062 0.515625 2.40625 1.17188 2.40625Z" fill="black" fill-opacity="0.85"/>
 </g>
</svg>
